<svg width="108" height="69" viewBox="0 0 108 69" fill="none" xmlns="http://www.w3.org/2000/svg">
<path d="M98.21 0.5L101.17 2.88867V2.88965C102.829 4.22765 104.839 6.64801 105.615 8.22168H105.616C106.659 10.3334 107.169 12.9737 107.137 15.5498C107.104 18.1296 106.528 20.5918 105.452 22.3613C105.209 22.7604 104.455 23.6762 103.261 25.0215C102.081 26.3502 100.506 28.0609 98.6582 30.0293C94.9623 33.9658 90.1814 38.9246 85.3018 43.8984C80.4222 48.8722 75.4458 53.8595 71.3604 57.8545C67.2627 61.8613 64.089 64.8413 62.7979 65.8262C60.6478 67.4662 57.3894 68.3772 54.0957 68.4746C50.7993 68.572 47.5749 67.8519 45.4863 66.3477C43.9804 65.2627 40.6166 62.1525 36.3594 58.002C32.1156 53.8644 27.0163 48.724 22.0566 43.6084C17.0969 38.4928 12.2795 33.4044 8.59961 29.3691C6.75929 27.3511 5.20578 25.5995 4.0625 24.2412C3.49069 23.5619 3.02494 22.9843 2.67773 22.5234C2.32219 22.0515 2.11591 21.7336 2.03711 21.5615C0.532568 18.2717 0.142778 15.0843 0.822266 12.0537C1.50259 9.01949 3.26444 6.09829 6.13477 3.3623L9.1377 0.5H98.21ZM53.8057 14C42.1443 14 32.8892 14.09 26.5479 14.2568C23.3784 14.3402 20.9302 14.4427 19.2715 14.5635C18.4448 14.6237 17.8016 14.6895 17.3594 14.7617C17.1423 14.7972 16.9502 14.8375 16.8037 14.8877C16.7337 14.9117 16.6417 14.9485 16.5586 15.0068C16.4917 15.0538 16.3058 15.2032 16.3057 15.4727C16.3057 15.6025 16.35 15.7122 16.374 15.7666C16.4038 15.8342 16.4424 15.9028 16.4824 15.9678C16.5629 16.0984 16.675 16.2547 16.8096 16.4297C17.0804 16.782 17.472 17.247 17.9619 17.8047C18.9436 18.9221 20.3436 20.4355 22.0234 22.2061C25.3845 25.7486 29.8786 30.3362 34.416 34.877C38.9534 39.4176 43.5372 43.9149 47.0771 47.2783C48.8465 48.9594 50.3589 50.3603 51.4756 51.3428C52.0329 51.8331 52.4976 52.225 52.8496 52.4961C53.0246 52.6308 53.1809 52.7426 53.3115 52.8232C53.3764 52.8633 53.4451 52.9018 53.5127 52.9316C53.5671 52.9556 53.676 52.9999 53.8057 53C53.9315 53 54.0374 52.9582 54.0898 52.9355C54.1547 52.9075 54.2208 52.8712 54.2822 52.834C54.4058 52.7591 54.5531 52.655 54.7178 52.5303C55.0494 52.2791 55.4889 51.9151 56.0186 51.4551C57.0802 50.533 58.5312 49.2037 60.2646 47.5684C63.7331 44.2963 68.3465 39.7853 73.2695 34.8252C78.1917 29.8655 82.6685 25.2456 85.915 21.7979C87.5376 20.0747 88.8556 18.6413 89.7695 17.6035C90.2257 17.0855 90.586 16.661 90.834 16.3457C90.9571 16.1892 91.0594 16.0514 91.1328 15.9385C91.1691 15.8826 91.205 15.8226 91.2334 15.7637C91.2523 15.7245 91.3057 15.6111 91.3057 15.4727C91.3055 15.2033 91.1207 15.0539 91.0537 15.0068C90.9706 14.9485 90.8786 14.9117 90.8086 14.8877C90.6621 14.8375 90.47 14.7972 90.2529 14.7617C89.8107 14.6895 89.1675 14.6237 88.3408 14.5635C86.6821 14.4427 84.2339 14.3402 81.0645 14.2568C74.723 14.09 65.4673 14 53.8057 14Z" fill="#141414" stroke="#141414"/>
</svg>
