<svg width="109" height="149" viewBox="0 0 109 149" fill="none" xmlns="http://www.w3.org/2000/svg">
<path fill-rule="evenodd" clip-rule="evenodd" d="M104.513 90.0038C106.445 91.3519 106.799 94.0685 105.278 95.8668L63.5408 145.216C62.2068 146.794 59.8911 147.096 58.1972 145.913L3.7109 107.881C1.7796 106.533 1.42529 103.816 2.94623 102.018L44.6844 52.6675C46.0184 51.0901 48.3342 50.7881 50.0281 51.9706L104.513 90.0038ZM43.0068 118.636C41.4858 120.435 41.8401 123.151 43.7714 124.499L56.378 133.299C58.072 134.482 60.3877 134.18 61.7217 132.602L71.9516 120.506C73.4724 118.708 73.1182 115.991 71.187 114.643L58.5811 105.843C56.8872 104.661 54.5714 104.963 53.2374 106.54L43.0068 118.636ZM16.8321 100.365C15.3111 102.164 15.6654 104.88 17.5968 106.228L31.0759 115.637C32.7698 116.819 35.0854 116.517 36.4194 114.94L46.65 102.844C48.171 101.046 47.8167 98.3295 45.8855 96.9813L32.4063 87.5723C30.7124 86.3898 28.3967 86.6918 27.0626 88.2691L16.8321 100.365ZM63.1181 94.8569C61.5972 96.6552 61.9515 99.3718 63.8827 100.72L76.4895 109.52C78.1834 110.702 80.4991 110.4 81.8331 108.823L91.3933 97.5194C92.9143 95.7211 92.56 93.0045 90.6287 91.6564L78.022 82.8564C76.3281 81.674 74.0124 81.9759 72.6783 83.5533L63.1181 94.8569ZM36.9434 76.586C35.4224 78.3843 35.7767 81.1009 37.7079 82.449L51.1872 91.8582C52.8811 93.0406 55.1968 92.7387 56.5309 91.1613L66.091 79.8577C67.612 78.0594 67.2577 75.3428 65.3265 73.9947L51.8472 64.5855C50.1533 63.4031 47.8376 63.7051 46.5035 65.2824L36.9434 76.586Z" fill="#141414"/>
<path d="M22.1789 20.18C23.6179 20.8245 24.5441 22.254 24.5441 23.8307V52.9652C24.5441 53.6439 24.3713 54.3115 24.0422 54.9051L23.452 55.9694C21.5857 59.3348 16.5086 58.3814 15.9903 54.5682L11.5813 22.1306C11.1588 19.0219 14.3164 16.659 17.1797 17.9413L22.1789 20.18Z" fill="#141414"/>
<path d="M84.497 45.7125C83.9077 49.5541 78.7392 50.3833 76.9777 46.9189L75.4671 43.948C75.1815 43.3864 75.0326 42.7652 75.0326 42.1351V23.155C75.0326 21.9437 75.5815 20.7976 76.5252 20.0384L82.0898 15.5615C84.9335 13.2738 89.1043 15.6771 88.551 19.2846L84.497 45.7125Z" fill="#141414"/>
<path d="M53.1537 33.6454C53.1537 35.4981 51.6518 37 49.7991 37C48.1954 37 46.816 35.8649 46.5073 34.2912L41.1084 6.77001C40.6236 4.29894 42.5154 2 45.0336 2H49.1537C51.3628 2 53.1537 3.79086 53.1537 6V33.6454Z" fill="#141414"/>
<path fill-rule="evenodd" clip-rule="evenodd" d="M104.513 90.0038C106.445 91.3519 106.799 94.0685 105.278 95.8668L63.5408 145.216C62.2068 146.794 59.8911 147.096 58.1972 145.913L3.7109 107.881C1.7796 106.533 1.42529 103.816 2.94623 102.018L44.6844 52.6675C46.0184 51.0901 48.3342 50.7881 50.0281 51.9706L104.513 90.0038ZM43.0068 118.636C41.4858 120.435 41.8401 123.151 43.7714 124.499L56.378 133.299C58.072 134.482 60.3877 134.18 61.7217 132.602L71.9516 120.506C73.4724 118.708 73.1182 115.991 71.187 114.643L58.5811 105.843C56.8872 104.661 54.5714 104.963 53.2374 106.54L43.0068 118.636ZM16.8321 100.365C15.3111 102.164 15.6654 104.88 17.5968 106.228L31.0759 115.637C32.7698 116.819 35.0854 116.517 36.4194 114.94L46.65 102.844C48.171 101.046 47.8167 98.3295 45.8855 96.9813L32.4063 87.5723C30.7124 86.3898 28.3967 86.6918 27.0626 88.2691L16.8321 100.365ZM63.1181 94.8569C61.5972 96.6552 61.9515 99.3718 63.8827 100.72L76.4895 109.52C78.1834 110.702 80.4991 110.4 81.8331 108.823L91.3933 97.5194C92.9143 95.7211 92.56 93.0045 90.6287 91.6564L78.022 82.8564C76.3281 81.674 74.0124 81.9759 72.6783 83.5533L63.1181 94.8569ZM36.9434 76.586C35.4224 78.3843 35.7767 81.1009 37.7079 82.449L51.1872 91.8582C52.8811 93.0406 55.1968 92.7387 56.5309 91.1613L66.091 79.8577C67.612 78.0594 67.2577 75.3428 65.3265 73.9947L51.8472 64.5855C50.1533 63.4031 47.8376 63.7051 46.5035 65.2824L36.9434 76.586Z" stroke="#141414" stroke-width="4"/>
<path d="M22.1789 20.18C23.6179 20.8245 24.5441 22.254 24.5441 23.8307V52.9652C24.5441 53.6439 24.3713 54.3115 24.0422 54.9051L23.452 55.9694C21.5857 59.3348 16.5086 58.3814 15.9903 54.5682L11.5813 22.1306C11.1588 19.0219 14.3164 16.659 17.1797 17.9413L22.1789 20.18Z" stroke="#141414" stroke-width="4"/>
<path d="M84.497 45.7125C83.9077 49.5541 78.7392 50.3833 76.9777 46.9189L75.4671 43.948C75.1815 43.3864 75.0326 42.7652 75.0326 42.1351V23.155C75.0326 21.9437 75.5815 20.7976 76.5252 20.0384L82.0898 15.5615C84.9335 13.2738 89.1043 15.6771 88.551 19.2846L84.497 45.7125Z" stroke="#141414" stroke-width="4"/>
<path d="M53.1537 33.6454C53.1537 35.4981 51.6518 37 49.7991 37C48.1954 37 46.816 35.8649 46.5073 34.2912L41.1084 6.77001C40.6236 4.29894 42.5154 2 45.0336 2H49.1537C51.3628 2 53.1537 3.79086 53.1537 6V33.6454Z" stroke="#141414" stroke-width="4"/>
</svg>
