<svg width="69" height="108" viewBox="0 0 69 108" fill="none" xmlns="http://www.w3.org/2000/svg">
<path d="M47.4229 2.03711C50.7125 0.532642 53.8992 0.142861 56.9297 0.822266C59.964 1.50262 62.886 3.26424 65.6221 6.13477L68.4834 9.13672V98.21L66.0947 101.17C64.7568 102.829 62.3364 104.839 60.7627 105.615V105.616C58.6509 106.659 56.0098 107.169 53.4336 107.137C50.8539 107.104 48.3915 106.528 46.6221 105.452C46.2229 105.209 45.307 104.455 43.9619 103.261C42.6332 102.081 40.9225 100.506 38.9541 98.6582C35.0176 94.9622 30.0588 90.1815 25.085 85.3018C20.1112 80.4221 15.1239 75.4458 11.1289 71.3604C7.12194 67.2626 4.14196 64.0889 3.15723 62.7979C1.51724 60.6478 0.606156 57.3894 0.508789 54.0957C0.4114 50.7992 1.13236 47.5749 2.63672 45.4863C3.72183 43.9803 6.83112 40.6163 10.9814 36.3594C15.119 32.1156 20.2595 27.0162 25.375 22.0566C30.4906 17.097 35.579 12.2794 39.6143 8.59961C41.6323 6.75932 43.3839 5.20578 44.7422 4.0625C45.4215 3.49073 45.9991 3.02495 46.46 2.67773C46.9323 2.32187 47.2509 2.11575 47.4229 2.03711ZM53.5107 16.3057C53.3808 16.3057 53.2712 16.35 53.2168 16.374C53.1493 16.4038 53.0814 16.4425 53.0166 16.4824C52.8859 16.5629 52.7297 16.675 52.5547 16.8096C52.2024 17.0804 51.7365 17.4719 51.1787 17.9619C50.0612 18.9436 48.5479 20.3436 46.7773 22.0234C43.2348 25.3844 38.6481 29.8787 34.1074 34.416C29.5667 38.9534 25.0686 43.5371 21.7051 47.0771C20.024 48.8465 18.6231 50.3589 17.6406 51.4756C17.1503 52.0329 16.7583 52.4976 16.4873 52.8496C16.3526 53.0246 16.2408 53.1809 16.1602 53.3115C16.1201 53.3764 16.0816 53.4451 16.0518 53.5127C16.0277 53.5671 15.9835 53.6761 15.9834 53.8057C15.9834 53.9315 16.0252 54.0374 16.0479 54.0898C16.0759 54.1547 16.1122 54.2208 16.1494 54.2822C16.2243 54.4059 16.3284 54.5531 16.4531 54.7178C16.7043 55.0494 17.0682 55.4888 17.5283 56.0186C18.4504 57.0802 19.7797 58.5311 21.415 60.2646C24.687 63.733 29.1981 68.3464 34.1582 73.2695C39.1179 78.1917 43.7378 82.6685 47.1855 85.915C48.9087 87.5376 50.3421 88.8556 51.3799 89.7695C51.898 90.2258 52.3234 90.586 52.6387 90.834C52.7952 90.9571 52.933 91.0594 53.0459 91.1328C53.1016 91.169 53.161 91.205 53.2197 91.2334C53.2587 91.2522 53.3721 91.3057 53.5107 91.3057C53.7801 91.3056 53.9294 91.1208 53.9766 91.0537C54.0349 90.9706 54.0717 90.8786 54.0957 90.8086C54.1459 90.662 54.1862 90.4701 54.2217 90.2529C54.2939 89.8107 54.3597 89.1675 54.4199 88.3408C54.5407 86.6821 54.6432 84.2339 54.7266 81.0645C54.8934 74.723 54.9834 65.4673 54.9834 53.8057C54.9834 42.1443 54.8934 32.8892 54.7266 26.5479C54.6432 23.3784 54.5407 20.9302 54.4199 19.2715C54.3597 18.4448 54.2939 17.8016 54.2217 17.3594C54.1862 17.1423 54.1459 16.9502 54.0957 16.8037C54.0717 16.7337 54.0349 16.6417 53.9766 16.5586C53.9354 16.5 53.816 16.351 53.6064 16.3145L53.5107 16.3057Z" fill="#141414" stroke="#141414"/>
</svg>
