<svg width="69" height="108" viewBox="0 0 69 108" fill="none" xmlns="http://www.w3.org/2000/svg">
<path d="M15.5498 0.500977C18.1296 0.533599 20.5918 1.11043 22.3613 2.18652C22.7605 2.42938 23.6763 3.18393 25.0215 4.37793C26.3502 5.55731 28.0609 7.13233 30.0293 8.98047C33.9658 12.6764 38.9246 17.4572 43.8984 22.3369C48.8722 27.2165 53.8595 32.1928 57.8545 36.2783C61.8615 40.3761 64.8414 43.5497 65.8262 44.8408C67.4662 46.9909 68.3773 50.2492 68.4746 53.543C68.572 56.8394 67.852 60.0638 66.3477 62.1523C65.2627 63.6583 62.1526 67.0221 58.002 71.2793C53.8644 75.5231 48.724 80.6224 43.6084 85.582C38.4928 90.5417 33.4044 95.3592 29.3691 99.0391C27.3511 100.879 25.5995 102.433 24.2412 103.576C23.5619 104.148 22.9843 104.614 22.5234 104.961C22.0514 105.317 21.7336 105.523 21.5615 105.602C18.2717 107.106 15.0844 107.495 12.0537 106.815C9.01938 106.135 6.09838 104.373 3.3623 101.503L0.5 98.5V9.42773L2.88867 6.46875L2.88965 6.46777C4.22773 4.80875 6.64816 2.79873 8.22168 2.02246C10.3334 0.979396 12.9737 0.468402 15.5498 0.500977ZM15.4727 16.332C15.2031 16.3322 15.0538 16.5181 15.0068 16.585C14.9486 16.668 14.9117 16.7591 14.8877 16.8291C14.8375 16.9756 14.7972 17.1676 14.7617 17.3848C14.6895 17.827 14.6237 18.4709 14.5635 19.2979C14.4427 20.9566 14.3402 23.4047 14.2568 26.5742C14.09 32.9156 14 42.1706 14 53.832C14 65.4936 14.09 74.7493 14.2568 81.0908C14.3402 84.2602 14.4427 86.7085 14.5635 88.3672C14.6237 89.1939 14.6895 89.8371 14.7617 90.2793C14.7972 90.4964 14.8375 90.6884 14.8877 90.835C14.9117 90.905 14.9485 90.9969 15.0068 91.0801C15.0539 91.1471 15.2034 91.3319 15.4727 91.332C15.6026 91.332 15.7122 91.2877 15.7666 91.2637C15.8341 91.2339 15.9029 91.1962 15.9678 91.1562C16.0985 91.0757 16.2546 90.9637 16.4297 90.8291C16.782 90.5583 17.247 90.1667 17.8047 89.6768C18.9221 88.6951 20.4355 87.295 22.2061 85.6152C25.7486 82.2542 30.3362 77.7601 34.877 73.2227C39.4176 68.6853 43.9148 64.1015 47.2783 60.5615C48.9594 58.7922 50.3603 57.2798 51.3428 56.1631C51.833 55.6058 52.225 55.1411 52.4961 54.7891C52.6307 54.6142 52.7427 54.4577 52.8232 54.3271C52.8633 54.2623 52.9018 54.1935 52.9316 54.126C52.9557 54.0716 53 53.962 53 53.832C52.9999 53.7059 52.9581 53.6 52.9355 53.5479C52.9075 53.483 52.8712 53.4178 52.834 53.3564C52.7591 53.2328 52.655 53.0856 52.5303 52.9209C52.2791 52.5893 51.9152 52.1499 51.4551 51.6201C50.533 50.5585 49.2037 49.1076 47.5684 47.374C44.2963 43.9056 39.7854 39.2914 34.8252 34.3682C29.8656 29.446 25.2456 24.9701 21.7979 21.7236C20.0747 20.1011 18.6413 18.783 17.6035 17.8691C17.0856 17.413 16.661 17.0527 16.3457 16.8047C16.1892 16.6816 16.0514 16.5793 15.9385 16.5059C15.8826 16.4696 15.8226 16.4337 15.7637 16.4053C15.7246 16.3864 15.6112 16.332 15.4727 16.332Z" fill="#141414" stroke="#141414"/>
</svg>
