<svg width="120" height="106" viewBox="0 0 120 106" fill="none" xmlns="http://www.w3.org/2000/svg">
<path d="M3.10938 36.4502C12.5678 10.2383 39.7086 -4.47578 66.5674 2.03516C75.7455 4.26042 84.0144 9.04372 91.3711 16.4004C93.245 18.2743 95.1511 20.4603 96.7275 22.4941C98.3113 24.5375 99.5365 26.3939 100.076 27.6133C100.64 28.8894 101.245 30.0562 101.767 30.9102C102.026 31.3351 102.273 31.6958 102.492 31.9561C102.601 32.0851 102.714 32.2041 102.829 32.2949C102.924 32.3702 103.106 32.4961 103.337 32.4961C103.441 32.496 103.566 32.4769 103.681 32.4551C103.806 32.4314 103.958 32.3973 104.128 32.3555C104.469 32.2717 104.906 32.152 105.405 32.0059C106.406 31.7131 107.676 31.3096 108.975 30.8672C111.815 29.8992 114.068 29.6233 115.678 29.9443C116.475 30.1034 117.101 30.4058 117.569 30.8311C118.036 31.2546 118.373 31.8228 118.557 32.5557C118.589 32.6834 118.6 32.9202 118.56 33.29C118.521 33.6489 118.438 34.0937 118.313 34.6172C118.065 35.664 117.657 36.989 117.129 38.5C116.074 41.5199 114.554 45.2481 112.909 48.917C111.264 52.586 109.501 56.1856 107.963 58.9492C107.193 60.3321 106.485 61.4968 105.881 62.3535C105.579 62.782 105.308 63.1248 105.074 63.377C104.831 63.6389 104.661 63.7655 104.564 63.8096C103.843 64.1391 102.922 64.1658 100.695 63.2754C98.474 62.387 95.0849 60.6428 89.5107 57.626C81.5036 53.2926 77.1666 50.8211 74.9834 48.9805C73.8991 48.0663 73.4127 47.3604 73.2373 46.7197C73.0637 46.0854 73.169 45.4242 73.4873 44.5273C73.8173 43.5979 74.3118 42.9057 75.208 42.2695C76.1278 41.6166 77.4777 41.0176 79.5381 40.3184C81.032 39.8114 82.4462 39.2961 83.5225 38.873C84.0598 38.6618 84.5174 38.4718 84.8604 38.3164C85.0311 38.239 85.1794 38.1676 85.2969 38.1045C85.3953 38.0516 85.5285 37.976 85.6201 37.8848L85.6211 37.8838C85.8005 37.7042 85.829 37.476 85.8252 37.3242C85.8212 37.1669 85.7816 37.005 85.7314 36.8555C85.6299 36.553 85.4465 36.1869 85.2129 35.7852C84.7415 34.9747 84.0122 33.931 83.1377 32.7949C81.3869 30.5205 79.0152 27.8239 76.8584 25.7959C59.4384 9.41902 29.1785 14.5795 16.6367 35.9814C15.1161 38.575 13.2108 44.0258 12.376 48.1211C11.7034 51.4169 11.3569 53.5036 11.3594 55.5928C11.3618 57.6823 11.7125 59.7516 12.3926 63.0127C15.1676 76.3232 23.5016 86.9895 35.9014 93.1182C53.011 101.574 71.6668 97.6576 85.7959 82.7188C87.4489 80.9706 89.0475 79.384 90.29 78.2373C90.9122 77.6631 91.4393 77.2048 91.8359 76.8926C92.0352 76.7357 92.1928 76.6229 92.3076 76.5518C92.3485 76.5265 92.3797 76.51 92.4014 76.499C92.9975 76.5305 93.6575 77.0523 94.1201 77.9629C94.5855 78.8791 94.7537 80.0184 94.459 80.9463C94.3889 81.1667 94.1515 81.5865 93.7256 82.1924C93.3119 82.781 92.7531 83.4997 92.0869 84.3008C90.7552 85.9021 89.01 87.8152 87.1748 89.6504C59.9439 116.881 16.414 107.626 3.20312 71.8232C2.01476 68.6029 1.33821 66.4018 0.957031 63.8906C0.57468 61.3715 0.487458 58.5216 0.501953 53.998C0.516441 49.6311 0.63347 46.7341 1.0127 44.1865C1.39079 41.6466 2.03127 39.4374 3.10938 36.4502Z" fill="#141414" stroke="#141414"/>
</svg>
