<svg width="120" height="106" viewBox="0 0 120 106" fill="none" xmlns="http://www.w3.org/2000/svg">
<path d="M52.5176 2.03516C79.3765 -4.47597 106.517 10.2382 115.976 36.4502C117.054 39.4374 117.694 41.6466 118.072 44.1865C118.451 46.7341 118.569 49.6311 118.584 53.998C118.598 58.5216 118.51 61.3715 118.128 63.8906C117.747 66.4018 117.07 68.6028 115.882 71.8232C102.671 107.626 59.1411 116.881 31.9102 89.6504C30.075 87.8152 28.3297 85.9021 26.998 84.3008C26.3319 83.4997 25.7731 82.781 25.3594 82.1924C24.9335 81.5865 24.696 81.1666 24.626 80.9463C24.3313 80.0184 24.4995 78.8791 24.9648 77.9629C25.4274 77.0524 26.0875 76.5308 26.6836 76.499C26.7053 76.5099 26.7364 76.5264 26.7773 76.5518C26.8922 76.6228 27.0497 76.7357 27.249 76.8926C27.6456 77.2048 28.1727 77.6631 28.7949 78.2373C30.0375 79.384 31.6369 80.9705 33.29 82.7188C47.4192 97.6575 66.0749 101.574 83.1846 93.1182C95.3904 87.0853 103.656 76.6554 106.559 63.6348L106.692 63.0127C107.373 59.7516 107.723 57.6823 107.726 55.5928C107.728 53.5036 107.383 51.4169 106.71 48.1211C105.927 44.2816 104.203 39.2508 102.737 36.5L102.448 35.9814C89.9064 14.5797 59.6476 9.4192 42.2275 25.7959C40.0706 27.824 37.6981 30.5204 35.9473 32.7949C35.0727 33.9311 34.3435 34.9747 33.8721 35.7852C33.6384 36.1869 33.455 36.553 33.3535 36.8555C33.3033 37.005 33.2637 37.1669 33.2598 37.3242C33.256 37.476 33.2845 37.7042 33.4639 37.8838L33.4648 37.8848C33.5565 37.9761 33.6896 38.0516 33.7881 38.1045C33.9056 38.1676 34.0537 38.239 34.2246 38.3164C34.5676 38.4718 35.026 38.6618 35.5635 38.873C36.6395 39.296 38.0533 39.8115 39.5469 40.3184C41.6073 41.0176 42.9581 41.6166 43.8779 42.2695C44.7739 42.9056 45.2677 43.598 45.5977 44.5273C45.9159 45.4242 46.0222 46.0854 45.8486 46.7197C45.6733 47.3604 45.1859 48.0662 44.1016 48.9805C41.9183 50.8211 37.5821 53.2927 29.5752 57.626C24.0009 60.6429 20.611 62.3869 18.3896 63.2754C16.1632 64.1658 15.2423 64.1392 14.5205 63.8096C14.424 63.7655 14.2546 63.6388 14.0117 63.377C13.7778 63.1248 13.5065 62.7822 13.2041 62.3535C12.5999 61.4968 11.8925 60.332 11.123 58.9492C9.58526 56.1856 7.82149 52.586 6.17676 48.917C4.53206 45.248 3.01091 41.52 1.95605 38.5C1.42827 36.989 1.02025 35.664 0.771484 34.6172C0.647111 34.0938 0.564352 33.6489 0.525391 33.29C0.485256 32.9202 0.497262 32.6834 0.529297 32.5557C0.713413 31.823 1.04892 31.2546 1.51562 30.8311C1.98438 30.4057 2.61094 30.1034 3.4082 29.9443C5.01777 29.6233 7.27041 29.8993 10.1104 30.8672C11.409 31.3096 12.6789 31.7131 13.6797 32.0059C14.1797 32.1521 14.6167 32.2717 14.958 32.3555C15.1283 32.3973 15.279 32.4314 15.4043 32.4551C15.5197 32.4769 15.645 32.4961 15.749 32.4961C15.9804 32.4961 16.1617 32.3702 16.2568 32.2949C16.3716 32.2041 16.4844 32.085 16.5928 31.9561C16.8115 31.6958 17.0595 31.3352 17.3193 30.9102C17.8413 30.0562 18.4446 28.8893 19.0088 27.6133C19.5484 26.3938 20.7745 24.5377 22.3584 22.4941C23.9349 20.4602 25.8409 18.2744 27.7148 16.4004C35.0715 9.04375 43.3395 4.26043 52.5176 2.03516Z" fill="#141414" stroke="#141414"/>
</svg>
