<svg width="133" height="129" viewBox="0 0 133 129" fill="none" xmlns="http://www.w3.org/2000/svg">
<path d="M132.467 64.4111C132.42 65.44 132.328 66.8714 132.198 68.4561C131.673 74.886 130.576 80.0196 128.631 84.5518C126.687 89.081 123.884 93.0358 119.915 97.0928C115.828 101.27 111.751 104.193 106.956 106.183C102.156 108.174 96.6095 109.242 89.5684 109.671L81.6904 110.15L81.2314 110.179L81.2217 110.639L80.835 127.95L62.8984 112.98C57.7485 108.682 53.0914 104.714 49.7383 101.784C48.0612 100.319 46.7132 99.115 45.793 98.2607C45.3321 97.8329 44.984 97.4975 44.7568 97.2627C44.7426 97.248 44.7298 97.2324 44.7168 97.2188C44.7483 97.1891 44.7824 97.1563 44.8193 97.1221C45.0764 96.8839 45.4517 96.5476 45.9336 96.123C46.897 95.2743 48.2776 94.0802 49.9746 92.6289C53.3684 89.7265 58.0216 85.7978 63.1133 81.543L80.835 66.7324L81.2217 84.1465L81.2314 84.5811L81.6631 84.6318L85.6855 85.1123C88.3591 85.4311 92.364 85.2713 96.3486 84.8057C100.335 84.3397 104.359 83.5603 107.068 82.6143C115.423 79.6982 120.322 76.4947 126.855 69.6865C128.572 67.8981 130.155 66.2668 131.324 65.0791C131.78 64.6159 132.174 64.2221 132.485 63.9121C132.48 64.0645 132.475 64.2315 132.467 64.4111ZM53.1943 1.94531C54.2606 2.79574 62.8493 9.93198 72.2861 17.8076C79.0156 23.4228 83.2428 27.0395 85.6973 29.3369C86.9288 30.4897 87.6916 31.2895 88.1006 31.832C88.2826 32.0735 88.3705 32.2354 88.4082 32.333C87.6532 33.0071 82.9447 36.9795 76.6699 42.2334L69.6045 48.1396L52.4014 62.4971L52.0137 44.8203L52.0029 44.3311H43.2041C35.2528 44.3311 28.6958 45.3811 22.7627 47.8262C16.8286 50.2717 11.5494 54.0994 6.13672 59.6094L0.628906 65.2148L0.976562 61.5234C1.63936 54.4741 2.76657 49.078 4.69336 44.4746C6.61738 39.8779 9.35007 36.046 13.2598 32.1406C21.6253 23.7845 30.8614 19.9883 42.8359 19.9883C44.6039 19.9883 46.3443 19.9371 47.7256 19.8545C48.4156 19.8132 49.0207 19.7636 49.4971 19.708C49.9505 19.6551 50.3478 19.5903 50.5771 19.501C50.9507 19.3554 51.235 19.089 51.4385 18.6641C51.6292 18.2656 51.7517 17.723 51.8379 17C52.0109 15.5491 52.0576 13.1754 52.0576 9.29102V1.03809L53.1943 1.94531Z" fill="#141414" stroke="#141414"/>
</svg>
